<svg width="25" height="25" viewBox="0 0 25 25" fill="none" xmlns="http://www.w3.org/2000/svg">
<path d="M18.6155 23.9841H0.350098V0.349976H14.3555L18.6155 4.66832V23.9841Z" fill="white"/>
<path d="M14.3555 0.349976H0.350098V23.9841H18.6155V4.66832M14.3555 0.349976L18.6155 4.66832M14.3555 0.349976C14.3555 2.03639 14.3555 2.9819 14.3555 4.66832C16.0192 4.66832 16.9519 4.66832 18.6155 4.66832M3.61803 8.28638H15.2892M3.61803 10.9708H15.2892M3.61803 13.6551H15.2892M3.61803 16.3395H13.6553M3.61803 19.0822H11.9046" stroke="black" stroke-width="0.7"/>
<path fill-rule="evenodd" clip-rule="evenodd" d="M20.4521 3.73792C21.0286 3.59719 22.2623 4.4456 22.3282 5.01369C22.337 5.08947 22.3021 5.16125 22.259 5.22426L20.3306 8.04949L18.4021 10.8747L17.138 12.7914L14.1649 17.1841L12.3821 18.4079C12.0169 18.5571 11.6176 18.2868 11.6203 17.8924L12.1787 15.8398L20.2687 3.88691C20.3144 3.8194 20.3729 3.75725 20.4521 3.73792Z" fill="black"/>
<path d="M17.138 12.7914L18.4021 10.8747L18.9584 11.2357C19.2284 11.4109 19.302 11.7737 19.1215 12.0402L18.5363 12.9049C18.3228 13.2204 17.8939 13.3031 17.5783 13.0895L17.138 12.7914Z" fill="black"/>
<path d="M14.1649 17.1841L12.1787 15.8398M14.1649 17.1841L12.3821 18.4079M14.1649 17.1841L17.138 12.7914M12.1787 15.8398L11.6203 17.8924M12.1787 15.8398L20.2687 3.88691M11.6203 17.8924L12.3821 18.4079M11.6203 17.8924C11.6176 18.2868 12.0169 18.5571 12.3821 18.4079M11.6203 17.8924C11.6176 18.2868 12.0169 18.5571 12.3821 18.4079M17.138 12.7914L18.4021 10.8747M17.138 12.7914L17.5783 13.0895M18.4021 10.8747L18.9584 11.2357M18.4021 10.8747L20.3306 8.04949L22.259 5.22426M22.3282 5.01369C22.2623 4.4456 21.0286 3.59719 20.4521 3.73792M22.3282 5.01369C22.337 5.08947 22.3021 5.16125 22.259 5.22426M22.3282 5.01369C22.337 5.08948 22.3021 5.16125 22.259 5.22426M20.4521 3.73792C20.3729 3.75725 20.3144 3.8194 20.2687 3.88691M20.4521 3.73792C20.3729 3.75725 20.3144 3.8194 20.2687 3.88691M17.5783 13.0895C17.8939 13.3031 18.3228 13.2204 18.5363 12.9049M17.5783 13.0895C17.8939 13.3031 18.3228 13.2204 18.5363 12.9049M18.5363 12.9049L19.1215 12.0402M19.1215 12.0402C19.302 11.7737 19.2284 11.4109 18.9584 11.2357M19.1215 12.0402C19.302 11.7737 19.2284 11.4109 18.9584 11.2357" stroke="white" stroke-width="0.7"/>
</svg>
