<svg width="25" height="22" viewBox="0 0 25 22" fill="none" xmlns="http://www.w3.org/2000/svg">
<path d="M3.06503 3.06493H6.48584C7.98526 3.06493 9.20078 4.28045 9.20078 5.77987H18.4858C19.8353 5.77987 20.9293 6.87383 20.9293 8.2233C22.6358 8.2233 23.8612 9.86638 23.3746 11.5021L21.7167 17.0746C20.9596 19.6191 18.6205 21.3636 15.9658 21.3636H0.350098V5.77987C0.350098 4.28045 1.56561 3.06493 3.06503 3.06493Z" fill="#D9D9D9"/>
<path d="M9.20078 5.77987H18.4858C19.8353 5.77987 20.9293 6.87383 20.9293 8.2233M9.20078 5.77987H0.350098M9.20078 5.77987C9.20078 4.28045 7.98526 3.06493 6.48584 3.06493H3.06503C1.56561 3.06493 0.350098 4.28045 0.350098 5.77987M20.9293 8.2233H8.80773C6.16984 8.2233 3.84136 9.9462 3.06999 12.4688L0.350098 21.3636M20.9293 8.2233C22.6358 8.2233 23.8612 9.86638 23.3746 11.5021L21.7167 17.0746C20.9596 19.6191 18.6205 21.3636 15.9658 21.3636H0.350098M0.350098 21.3636V5.77987" stroke="black" stroke-width="0.7"/>
<path d="M8.53003 5.45541H16.0243M8.53003 7.18225H16.0243" stroke="black" stroke-width="0.7"/>
<path d="M18.1601 3.12794V8.169H6.43164V0.349998H15.4247L18.1601 3.12794Z" fill="white"/>
<path d="M18.1601 3.12794C17.0919 3.12794 16.493 3.12794 15.4247 3.12794C15.4247 2.04309 15.4247 1.43485 15.4247 0.349998M18.1601 3.12794V8.169H6.43164V0.349998H15.4247M18.1601 3.12794L15.4247 0.349998" stroke="black" stroke-width="0.7"/>
</svg>
