<svg width="25" height="19" viewBox="0 0 25 19" fill="none" xmlns="http://www.w3.org/2000/svg">
<rect x="0.350098" y="3.34741" width="23" height="14" fill="#D9D9D9"/>
<path d="M15.6616 1.33492L18.8403 0.618591V6.17012H15.6616V1.33492Z" fill="#727272"/>
<path fill-rule="evenodd" clip-rule="evenodd" d="M22.1146 15.4084V3.04437V0.418382C21.1859 0.236582 19.6588 0.435513 18.0679 0.798425L17.8492 4.95915L17.0836 3.86499L16.318 5.12328V1.25325C14.1604 1.87892 12.5276 2.66683 11.9979 3.04437C11.9979 3.04437 9.04726 1.36822 6.96693 0.856047C5.07259 0.389664 1.99064 0.418382 1.99064 0.418382V3.04437V15.4084C6.04941 15.7034 8.22842 16.2548 11.9979 17.7061C15.9226 16.1812 18.1354 15.6248 22.1146 15.4084Z" fill="white"/>
<path d="M22.1146 3.04437H23.8098L23.6457 17.7061H13.365M22.1146 3.04437V15.4084C18.1354 15.6248 15.9226 16.1812 11.9979 17.7061M22.1146 3.04437V0.418382C21.1859 0.236582 19.6588 0.435513 18.0679 0.798425M11.9979 17.7061C8.22842 16.2548 6.04941 15.7034 1.99064 15.4084V3.04437M11.9979 17.7061H10.6308M11.9979 17.7061H13.365M1.99064 3.04437V0.418382C1.99064 0.418382 5.07259 0.389664 6.96693 0.856047C9.04726 1.36822 11.9979 3.04437 11.9979 3.04437C12.5276 2.66683 14.1604 1.87892 16.318 1.25325M1.99064 3.04437H0.350098V17.7061H10.6308M3.84991 3.04437C6.29475 3.28821 7.66079 3.5561 10.084 4.41207M10.6308 17.7061C10.6308 17.7061 10.6308 18.5268 11.9979 18.5268C13.365 18.5268 13.365 17.7061 13.365 17.7061M3.84991 4.95915C6.29475 5.20299 7.66079 5.47088 10.084 6.32686M3.84991 6.81923C6.29475 7.06306 7.66079 7.33096 10.084 8.18693M3.84991 8.73401C6.29475 8.97785 7.66079 9.24574 10.084 10.1017M3.84991 10.7035C6.29475 10.9473 7.66079 11.2152 10.084 12.0712M3.84991 12.5089C6.29475 12.7527 7.66079 13.0206 10.084 13.8766M20.1459 7.03806C17.7011 7.28164 16.335 7.54924 13.9119 8.4043M20.1459 8.95284C17.7011 9.19642 16.335 9.46402 13.9119 10.3191M20.1459 10.8129C17.7011 11.0565 16.335 11.3241 13.9119 12.1792M20.1459 12.6745C17.7011 12.918 16.335 13.1856 13.9119 14.0407M16.318 1.25325V5.12328L17.0836 3.86499L17.8492 4.95915L18.0679 0.798425M16.318 1.25325C16.8923 1.08671 17.4844 0.931536 18.0679 0.798425" stroke="black" stroke-width="0.7"/>
</svg>
